<svg width="64" height="64" viewBox="0 0 64 64" fill="none" xmlns="http://www.w3.org/2000/svg">
<path d="M41.8066 17.9648L51.6738 23.3916L57.9004 31.0547L55.1006 36.1875L47.2178 43.5781L37.3926 48H27.584L14.7715 43.5645L8.91113 37.7041L5.58008 31.042L8.86523 26.3486L19.71 17.9688L32.9766 15.5117L41.8066 17.9648Z" fill="white" stroke="black"/>
<path d="M31.6447 12.8867C43.4756 12.8868 54.141 19.7088 60.2091 30.9267H60.2081L60.6691 31.7578L60.8009 31.997L60.671 32.2382L60.2091 33.0878L60.2101 33.0888C54.1585 44.3996 43.4733 51.1307 31.6447 51.1308C19.8137 51.1308 9.14833 44.3087 3.0802 33.0908L2.61829 32.2382L2.48254 31.9882L2.62805 31.7441L3.11926 30.9179C9.13544 19.7038 19.8176 12.8867 31.6447 12.8867ZM31.6447 17.5136C21.9186 17.5136 12.9597 22.888 7.68762 32C12.9597 41.112 21.9186 46.4863 31.6447 46.4863C41.349 46.4862 50.2184 41.114 55.5773 32C50.2183 22.9025 41.3658 17.5137 31.6447 17.5136Z" fill="black" stroke="white"/>
<path d="M32.16 44.2489C38.8955 44.2489 44.3556 38.7887 44.3556 32.0533C44.3556 25.3179 38.8955 19.8578 32.16 19.8578C25.4246 19.8578 19.9645 25.3179 19.9645 32.0533C19.9645 38.7887 25.4246 44.2489 32.16 44.2489Z" fill="#16A34A"/>
<path d="M25.4383 36.8026L30.6666 39.7708C31.5631 40.283 32.4219 40.2906 33.3334 39.7708L38.5617 36.8026C39.2623 36.4033 39.6464 35.9965 39.6464 34.9042V29.0431C39.6464 27.9809 39.2547 27.5967 38.6144 27.2275L33.3711 24.2443C32.437 23.7094 31.5405 23.7169 30.6289 24.2443L25.3856 27.2275C24.7452 27.5967 24.3535 27.9809 24.3535 29.0431V34.9042C24.3535 35.9965 24.7377 36.4033 25.4383 36.8026Z" fill="black"/>
</svg>
